<svg xmlns="http://www.w3.org/2000/svg" width="100" height="100" viewBox="0 0 3000 3000" version="1.1"><path d="" stroke="none" fill="#000000" fill-rule="evenodd"/><path d="M 1450.500 690.971 C 1438.516 693.027, 1427.057 698.547, 1418.147 706.558 C 1410.738 713.219, 1401.993 726.815, 1398.568 737 C 1391.835 757.016, 1394.909 775.469, 1408.173 794.656 C 1414.390 803.650, 1419.499 808.425, 1428.842 813.976 C 1437.692 819.233, 1446.627 821.845, 1458.535 822.654 C 1486.158 824.532, 1510.552 809.879, 1523.793 783.453 C 1527.580 775.896, 1529 768.374, 1529 755.866 C 1529 743.979, 1527.688 737.381, 1523.757 729.500 C 1514.496 710.932, 1500.263 698.240, 1482.728 692.911 C 1475.567 690.735, 1458.034 689.680, 1450.500 690.971 M 1328 824.962 C 1283.755 835.465, 1249.641 868.283, 1238.349 911.207 C 1236.069 919.875, 1235.575 924.134, 1235.221 938.187 C 1234.816 954.277, 1234.913 955.325, 1237.944 967.433 C 1242.937 987.382, 1250.755 1002.485, 1264.247 1018.246 C 1275.639 1031.554, 1389.887 1144.934, 1392.589 1145.612 C 1394.017 1145.970, 1396.200 1145.696, 1397.515 1144.992 C 1398.814 1144.297, 1408.904 1134.632, 1419.938 1123.513 C 1441.479 1101.808, 1442.181 1100.720, 1438.353 1094.973 C 1437.447 1093.613, 1409.156 1064.825, 1375.484 1031 L 1314.262 969.500 1309.936 960.686 C 1306.054 952.778, 1305.567 950.977, 1305.193 943.148 C 1304.454 927.699, 1309.423 915.291, 1320.340 905.327 C 1327.828 898.492, 1335.279 895.004, 1345.058 893.755 C 1360.519 891.781, 1372.963 895.229, 1384.014 904.548 C 1387.031 907.092, 1405.272 924.885, 1424.550 944.087 C 1454.665 974.085, 1460.012 979, 1462.535 979 C 1465.065 979, 1470.662 973.805, 1502.986 941.456 C 1523.619 920.807, 1542.525 902.578, 1545 900.948 C 1554.714 894.551, 1568.040 891.929, 1581.111 893.842 C 1597.486 896.239, 1611.530 908.274, 1618.186 925.614 C 1621.608 934.529, 1621.348 947.167, 1617.554 956.326 C 1615.999 960.080, 1612.793 965.778, 1610.429 968.990 C 1608.065 972.201, 1555.251 1025.661, 1493.065 1087.789 C 1382.126 1198.626, 1380 1200.822, 1380 1204.599 C 1380 1208.277, 1380.945 1209.393, 1401.276 1229.724 C 1420.778 1249.226, 1422.841 1251.001, 1426.026 1251.012 C 1429.311 1251.024, 1435.793 1244.720, 1545.049 1135.262 C 1627.803 1052.356, 1662.493 1016.946, 1667.276 1010.500 C 1682.371 990.158, 1690.266 966.360, 1690.204 941.381 C 1690.141 915.633, 1683.278 893.378, 1669.119 873 C 1657.418 856.159, 1646.289 846.341, 1627.879 836.619 C 1607.999 826.121, 1595.320 823, 1572.545 823 C 1553.871 823, 1545.435 824.373, 1531.550 829.672 C 1512.113 837.089, 1499.998 845.362, 1479.687 865.086 C 1472.089 872.464, 1465.048 878.886, 1464.039 879.357 C 1461.368 880.605, 1460.171 879.686, 1445.122 864.833 C 1437.630 857.439, 1428.800 849.351, 1425.500 846.859 C 1410.655 835.650, 1394.274 828.302, 1375.792 824.560 C 1364.835 822.342, 1338.089 822.567, 1328 824.962" stroke="none" fill="#22a7f0" fill-rule="evenodd"/><path d="M 1118.435 1046.085 C 1089.978 1049.409, 1067.025 1060.249, 1047.609 1079.534 C 1040.265 1086.828, 1025 1107.456, 1025 1110.084 C 1025 1110.511, 1023.686 1113.704, 1022.081 1117.180 C 1011.701 1139.648, 1009.564 1166.220, 1016.098 1191.555 C 1022.233 1215.341, 1031.117 1229.808, 1054.250 1253.682 C 1067.619 1267.479, 1070 1270.399, 1070 1273 C 1070 1275.609, 1067.663 1278.446, 1054.250 1292.117 C 1029.275 1317.573, 1023.104 1327.690, 1015.820 1355.124 C 1012.751 1366.685, 1012.536 1368.553, 1012.556 1383.500 C 1012.576 1397.784, 1012.877 1400.626, 1015.364 1410 C 1021.878 1434.551, 1030.145 1449.139, 1047.460 1466.633 C 1057.478 1476.753, 1066.627 1483.108, 1080.360 1489.482 C 1099.043 1498.153, 1108.304 1500.129, 1130.214 1500.121 C 1147.790 1500.114, 1156.045 1498.880, 1168.468 1494.400 C 1178.150 1490.909, 1192.526 1482.980, 1201.770 1476.032 C 1212.578 1467.910, 1332.664 1347.362, 1333.546 1343.750 C 1333.915 1342.237, 1333.910 1339.763, 1333.534 1338.250 C 1332.687 1334.837, 1297.049 1298.726, 1292.307 1296.475 C 1289.291 1295.044, 1288.699 1295.049, 1285.587 1296.526 C 1283.709 1297.417, 1279.780 1300.925, 1276.856 1304.323 C 1273.932 1307.720, 1269.730 1312.331, 1267.519 1314.570 C 1175.424 1407.812, 1162.214 1420.610, 1153 1425.511 L 1145.500 1429.500 1130.479 1429.500 L 1115.458 1429.500 1108.479 1426.070 C 1095.567 1419.724, 1085.458 1406.034, 1082.919 1391.457 C 1080.418 1377.096, 1083.818 1363.324, 1092.646 1352.057 C 1094.610 1349.551, 1111.901 1331.975, 1131.070 1313 C 1150.240 1294.025, 1166.380 1277.263, 1166.937 1275.750 C 1167.617 1273.906, 1167.620 1272.131, 1166.948 1270.363 C 1166.396 1268.912, 1150.824 1252.824, 1132.342 1234.613 C 1097.460 1200.238, 1092.143 1194.330, 1087.172 1184.416 C 1076.014 1162.160, 1084.223 1133.035, 1104.679 1122.299 C 1124.300 1112.002, 1144.681 1113.322, 1160.500 1125.913 C 1162.700 1127.665, 1215.373 1179.925, 1277.552 1242.049 C 1382.781 1347.185, 1390.836 1355, 1393.966 1355 C 1396.994 1355, 1399.205 1353.133, 1416.143 1336.279 C 1426.491 1325.982, 1435.930 1315.722, 1437.120 1313.479 C 1439.236 1309.491, 1439.245 1309.318, 1437.499 1305.640 C 1434.931 1300.228, 1211.355 1076.705, 1200.714 1068.910 C 1183.148 1056.043, 1164.772 1049.006, 1141.026 1046.054 C 1131.602 1044.882, 1128.699 1044.886, 1118.435 1046.085 M 937 1207.592 C 924.314 1209.918, 912.010 1215.673, 903.491 1223.266 C 894.436 1231.336, 885.016 1246.664, 882.450 1257.500 C 880.603 1265.301, 880.633 1281.817, 882.508 1289.769 C 886.240 1305.598, 898.171 1321.507, 912.882 1330.270 C 927.447 1338.947, 950.271 1341.454, 966.784 1336.191 C 985.888 1330.103, 1003.703 1311.720, 1010.579 1291 C 1011.940 1286.898, 1012.416 1282.322, 1012.452 1273 C 1012.493 1262.385, 1012.134 1259.382, 1010.073 1253.090 C 1007.217 1244.368, 998.267 1230.277, 991.855 1224.406 C 985.959 1219.008, 974.029 1212.111, 966.576 1209.791 C 960.736 1207.973, 942.368 1206.607, 937 1207.592" stroke="none" fill="#77dd77" fill-rule="evenodd"/><path d="M 1778.044 1046.557 C 1772.292 1047.375, 1763.967 1049.187, 1759.544 1050.584 C 1749.820 1053.656, 1733.865 1061.617, 1725 1067.822 C 1717.744 1072.900, 1592.725 1196.823, 1590.400 1201.241 C 1589.607 1202.749, 1589.224 1205.045, 1589.550 1206.343 C 1589.876 1207.641, 1599.697 1218.220, 1611.374 1229.852 C 1629.279 1247.685, 1633.063 1251, 1635.520 1251 C 1638.039 1251, 1647.030 1242.422, 1701.967 1187.604 C 1768.900 1120.816, 1768.328 1121.321, 1781.154 1117.628 C 1788.490 1115.516, 1802.503 1115.509, 1809.747 1117.615 C 1822.322 1121.270, 1831.791 1129.684, 1838.315 1143 C 1842.466 1151.473, 1842.480 1151.537, 1842.482 1163 C 1842.484 1174.350, 1842.434 1174.601, 1838.619 1182.241 C 1833.369 1192.757, 1827.382 1199.443, 1790.612 1235.849 C 1773.197 1253.090, 1758.274 1268.503, 1757.449 1270.099 C 1756.135 1272.640, 1756.128 1273.341, 1757.393 1275.750 C 1758.188 1277.263, 1770.194 1289.750, 1784.075 1303.500 C 1828.742 1347.746, 1834.042 1353.490, 1838.522 1362.500 C 1842.494 1370.488, 1842.500 1370.519, 1842.500 1382.500 L 1842.500 1394.500 1838.195 1403 C 1831.543 1416.133, 1821.754 1424.669, 1809.068 1428.402 C 1802.324 1430.386, 1786.999 1430.506, 1780.742 1428.623 C 1768.643 1424.982, 1768.961 1425.281, 1649.500 1305.321 C 1541.709 1197.081, 1535.282 1190.819, 1531.500 1190.343 L 1527.500 1189.840 1509.656 1207.437 C 1487.266 1229.519, 1485 1232.198, 1485 1236.587 C 1485 1239.763, 1492.551 1247.538, 1601.250 1356.284 C 1672.904 1427.969, 1719.994 1474.331, 1724 1477.139 C 1738.231 1487.110, 1755.003 1494.761, 1769.806 1498.034 C 1780.552 1500.410, 1804.492 1500.672, 1816.515 1498.545 C 1839.252 1494.522, 1866.407 1479.615, 1880.517 1463.410 C 1894.466 1447.391, 1901.202 1435.972, 1906.613 1419.171 C 1911.413 1404.272, 1912.298 1398.317, 1912.212 1381.500 C 1912.129 1365.167, 1911.030 1358.336, 1906.036 1343.088 C 1899.733 1323.846, 1892.980 1313.980, 1870.318 1290.901 C 1859.483 1279.868, 1855 1274.627, 1855 1272.993 C 1855 1271.366, 1859.245 1266.355, 1869.341 1256.061 C 1891.813 1233.150, 1899.925 1220.987, 1906.619 1200.171 C 1911.198 1185.932, 1912.186 1179.632, 1912.289 1164 C 1912.396 1147.754, 1911.035 1138.916, 1906.282 1125 C 1894.401 1090.212, 1867.414 1062.967, 1833.930 1051.958 C 1815.899 1046.030, 1795.576 1044.066, 1778.044 1046.557 M 1966.801 1207.448 C 1952.011 1210.037, 1941.972 1215.279, 1931.888 1225.680 C 1922.904 1234.946, 1918.328 1242.332, 1914.791 1253.275 C 1911.963 1262.027, 1911.833 1263.166, 1912.260 1275.500 C 1912.666 1287.195, 1913.016 1289.216, 1915.752 1295.636 C 1923.379 1313.535, 1936.155 1327.315, 1951.356 1334.039 C 1957.073 1336.568, 1972.918 1340.005, 1978.739 1339.978 C 1985.353 1339.948, 2000.160 1336.531, 2006.751 1333.514 C 2023.111 1326.024, 2037.527 1309.670, 2042.464 1293 C 2044.689 1285.485, 2045.505 1269.162, 2044.113 1260 C 2042.115 1246.849, 2032.618 1231.043, 2020.970 1221.479 C 2006.806 1209.850, 1985.141 1204.238, 1966.801 1207.448 M 1489.242 1301.349 C 1485.469 1305.012, 1483.151 1307.975, 1483.762 1308.353 C 1484.344 1308.713, 1486.401 1307.472, 1488.333 1305.596 C 1496.657 1297.513, 1503.797 1298.604, 1508.693 1308.706 C 1510.524 1312.486, 1512.717 1315.274, 1515 1316.727 C 1516.925 1317.951, 1518.873 1319.378, 1519.330 1319.897 C 1519.787 1320.416, 1522.831 1323.619, 1526.096 1327.016 C 1529.361 1330.413, 1532.475 1334.020, 1533.016 1335.031 C 1535.817 1340.264, 1532.693 1348.933, 1527.095 1351.457 C 1525.106 1352.354, 1522.358 1354.744, 1520.989 1356.769 C 1518.126 1361.002, 1503.301 1376, 1501.980 1376 C 1501.494 1376, 1499.764 1377.937, 1498.135 1380.304 C 1496.507 1382.671, 1493.296 1385.909, 1491 1387.500 C 1488.704 1389.091, 1485.508 1392.308, 1483.898 1394.649 C 1482.287 1396.990, 1479.739 1399.634, 1478.235 1400.526 C 1476.731 1401.417, 1474.233 1403.913, 1472.685 1406.073 C 1471.137 1408.233, 1469.396 1410, 1468.816 1410 C 1467.114 1410, 1453.039 1424.169, 1450.814 1428.121 C 1449.693 1430.113, 1446.840 1432.967, 1444.472 1434.463 C 1442.105 1435.960, 1436.730 1440.855, 1432.527 1445.342 C 1428.325 1449.829, 1424.350 1454.074, 1423.693 1454.775 C 1423.037 1455.476, 1418.808 1459.260, 1414.295 1463.183 C 1409.155 1467.652, 1405.553 1471.659, 1404.652 1473.908 C 1402.971 1478.107, 1400.913 1480.088, 1395.740 1482.491 C 1393.672 1483.452, 1390.522 1486.090, 1388.740 1488.354 C 1385.733 1492.175, 1379.448 1499.177, 1376.941 1501.500 C 1376.347 1502.050, 1373.721 1504.576, 1371.105 1507.113 C 1368.489 1509.650, 1365.128 1512.525, 1363.637 1513.502 C 1362.146 1514.479, 1359.454 1517.803, 1357.655 1520.889 C 1355.153 1525.178, 1353.324 1527.006, 1349.889 1528.646 C 1347.418 1529.827, 1344.077 1532.527, 1342.465 1534.646 C 1340.853 1536.766, 1337.909 1540.075, 1335.923 1542 C 1333.936 1543.925, 1331.903 1546.198, 1331.405 1547.050 C 1330.907 1547.903, 1329.027 1549.628, 1327.227 1550.884 C 1325.427 1552.141, 1323.100 1554.818, 1322.056 1556.834 C 1321.012 1558.850, 1318.885 1561.400, 1317.329 1562.500 C 1312.683 1565.785, 1308.802 1570.252, 1306.905 1574.500 C 1305.922 1576.700, 1303.508 1580.750, 1301.541 1583.500 C 1296.299 1590.828, 1295.715 1594.032, 1297.025 1608.273 C 1298.420 1623.432, 1300.305 1628.197, 1307.012 1633.510 C 1309.888 1635.787, 1312.568 1638.963, 1313.427 1641.108 C 1315.381 1645.993, 1319.860 1649.018, 1326.466 1649.914 C 1329.692 1650.352, 1333.543 1651.755, 1336.023 1653.397 C 1338.308 1654.909, 1340.745 1655.928, 1341.439 1655.662 C 1342.133 1655.396, 1346.265 1655.633, 1350.621 1656.189 C 1360.094 1657.398, 1366.463 1656.162, 1367.303 1652.951 C 1367.752 1651.232, 1367.499 1651.030, 1365.667 1651.645 C 1364.475 1652.045, 1358.775 1652.341, 1353 1652.304 C 1335.894 1652.195, 1324.141 1646.614, 1315.011 1634.267 C 1308.414 1625.345, 1305.901 1618.561, 1305.261 1607.945 C 1304.609 1597.130, 1306.460 1590.255, 1312.785 1580 C 1317.006 1573.155, 1355.560 1533.624, 1455.088 1434.088 C 1455.962 1433.215, 1462.487 1426.836, 1469.588 1419.913 C 1476.690 1412.990, 1496.053 1393.636, 1512.618 1376.903 C 1545.011 1344.181, 1545.667 1343.303, 1542.568 1336.797 C 1540.982 1333.466, 1510.238 1301.411, 1504.639 1297.250 C 1499.493 1293.426, 1496.612 1294.193, 1489.242 1301.349 M 1526.108 1401.884 L 1523.716 1403.723 1529.124 1406.199 C 1532.099 1407.561, 1535.200 1409.317, 1536.016 1410.102 C 1536.832 1410.887, 1539.357 1412.979, 1541.626 1414.750 C 1544.174 1416.739, 1546.761 1420.102, 1548.388 1423.539 C 1550.684 1428.387, 1552.021 1429.740, 1558.762 1434.031 C 1563.673 1437.156, 1567.367 1440.357, 1568.871 1442.791 C 1570.175 1444.901, 1572.747 1447.658, 1574.587 1448.919 C 1576.427 1450.180, 1579.474 1453.093, 1581.359 1455.393 C 1583.243 1457.692, 1586.814 1460.857, 1589.295 1462.425 C 1592.496 1464.448, 1593.977 1466.135, 1594.398 1468.238 C 1595.330 1472.902, 1600.725 1478.831, 1606.871 1481.948 C 1610.227 1483.650, 1613.213 1486.025, 1614.265 1487.830 C 1615.235 1489.496, 1617.450 1492.127, 1619.188 1493.679 C 1620.925 1495.231, 1624.654 1498.831, 1627.476 1501.679 C 1630.298 1504.528, 1634.434 1507.590, 1636.669 1508.484 C 1640.224 1509.907, 1640.939 1510.751, 1642.389 1515.240 C 1644.594 1522.069, 1647.994 1526.319, 1653.913 1529.646 C 1656.602 1531.158, 1659.522 1533.614, 1660.403 1535.105 C 1661.284 1536.596, 1663.544 1539.659, 1665.426 1541.911 C 1667.307 1544.163, 1669.390 1547.692, 1670.054 1549.753 C 1670.718 1551.814, 1671.612 1553.950, 1672.042 1554.500 C 1672.471 1555.050, 1673.257 1557.750, 1673.788 1560.500 C 1675.095 1567.275, 1676.841 1574.240, 1679.145 1581.877 C 1681.968 1591.232, 1682.736 1613.789, 1680.614 1625 C 1677.927 1639.196, 1677.358 1641.291, 1674.639 1647 C 1673.198 1650.025, 1672.015 1652.995, 1672.010 1653.600 C 1672.004 1654.205, 1670.537 1656.678, 1668.750 1659.095 C 1666.963 1661.513, 1664.150 1665.933, 1662.500 1668.919 C 1659.410 1674.508, 1658.288 1675.498, 1654 1676.416 C 1650.534 1677.157, 1645.663 1681.773, 1643.616 1686.255 C 1641.560 1690.758, 1628.398 1700.952, 1621.234 1703.590 C 1618.630 1704.549, 1615.600 1706.075, 1614.500 1706.980 C 1612.533 1708.601, 1601.314 1711.971, 1591.500 1713.891 C 1583.572 1715.442, 1555.051 1716.340, 1550.500 1715.182 C 1530.422 1710.072, 1526.581 1708.941, 1525.145 1707.716 C 1524.240 1706.943, 1521.519 1705.542, 1519.097 1704.602 C 1511.212 1701.543, 1500.343 1693.813, 1497.357 1689.140 C 1495.825 1686.743, 1492.988 1683.705, 1491.054 1682.390 C 1487.157 1679.742, 1482 1679.171, 1482 1681.386 C 1482 1682.149, 1486.070 1686.646, 1491.045 1691.380 C 1505.034 1704.693, 1523.404 1714.663, 1543.394 1719.792 C 1552.556 1722.143, 1555.274 1722.383, 1572.500 1722.363 C 1588.645 1722.345, 1592.836 1722.011, 1600.394 1720.146 C 1619.377 1715.461, 1639.909 1704.166, 1652.146 1691.678 C 1668.139 1675.357, 1671.447 1671.113, 1677.330 1659.374 C 1697.596 1618.928, 1693.964 1572.662, 1667.645 1536 C 1663.347 1530.014, 1643.937 1509.849, 1602.021 1467.824 C 1569.285 1435.002, 1540.258 1406.315, 1537.518 1404.074 C 1532.023 1399.580, 1529.687 1399.132, 1526.108 1401.884 M 1485.395 1444.564 C 1485.041 1445.974, 1485.145 1447.976, 1485.626 1449.014 C 1486.107 1450.052, 1512.620 1477.136, 1544.545 1509.200 C 1599.856 1564.753, 1611.860 1577.405, 1614.260 1582.672 C 1616.112 1586.736, 1617.317 1585.321, 1616.668 1579.845 C 1616.057 1574.682, 1613.453 1570.598, 1610.092 1569.527 C 1609.216 1569.249, 1607.394 1566.933, 1606.043 1564.382 C 1602.307 1557.328, 1600.104 1554.974, 1595.327 1552.926 C 1592.924 1551.896, 1590.702 1550.253, 1590.391 1549.276 C 1589.478 1546.416, 1585.833 1539.651, 1584.157 1537.707 C 1583.307 1536.720, 1580.539 1534.786, 1578.006 1533.407 C 1575.203 1531.881, 1572.652 1529.509, 1571.486 1527.343 C 1570.400 1525.328, 1567.294 1522.330, 1564.319 1520.428 C 1561.431 1518.580, 1557.922 1515.253, 1556.521 1513.033 C 1555.120 1510.814, 1551.738 1507.536, 1549.005 1505.749 C 1546.174 1503.898, 1544.028 1501.739, 1544.018 1500.730 C 1543.997 1498.664, 1540.052 1492.134, 1537.527 1489.985 C 1536.567 1489.168, 1533.468 1487.375, 1530.641 1486 C 1527.050 1484.254, 1524.908 1482.395, 1523.538 1479.837 C 1522.369 1477.652, 1519.684 1475.067, 1516.887 1473.434 C 1514.146 1471.833, 1511.319 1469.133, 1510.085 1466.937 C 1508.923 1464.870, 1506.654 1462.344, 1505.043 1461.324 C 1499.779 1457.992, 1488 1445.990, 1488 1443.960 C 1488 1441.123, 1486.150 1441.552, 1485.395 1444.564 M 1271.096 1520.402 C 1264.333 1527.250, 1265.055 1529.440, 1272.841 1525.692 C 1276.761 1523.805, 1280.315 1515, 1277.157 1515 C 1276.758 1515, 1274.031 1517.431, 1271.096 1520.402 M 1458.367 1567.591 C 1456.644 1568.441, 1453.944 1570.773, 1452.367 1572.773 C 1450.790 1574.773, 1446.125 1579.980, 1442 1584.344 C 1435.170 1591.570, 1434.768 1592.216, 1437.500 1591.571 C 1440.985 1590.749, 1448.223 1586.710, 1449.620 1584.808 C 1450.148 1584.088, 1451.427 1580.902, 1452.461 1577.726 C 1454.593 1571.180, 1456.883 1569.836, 1461.642 1572.342 C 1465.260 1574.246, 1473.544 1582.898, 1478.387 1589.829 C 1480.434 1592.760, 1483.773 1596.574, 1485.805 1598.306 C 1490.135 1601.995, 1494.666 1606.554, 1505.109 1617.728 C 1510.412 1623.402, 1513.746 1626.134, 1516.109 1626.743 C 1518.287 1627.303, 1519.964 1628.573, 1520.798 1630.293 C 1523.204 1635.259, 1536.173 1647.139, 1542 1649.716 C 1545.025 1651.053, 1549.787 1653.255, 1552.583 1654.610 C 1558.283 1657.370, 1566.534 1657.969, 1572.364 1656.045 C 1574.298 1655.407, 1576.469 1655.001, 1577.190 1655.143 C 1579.196 1655.538, 1586 1654.007, 1586 1653.161 C 1586 1652.749, 1580.263 1652.412, 1573.250 1652.413 C 1551.172 1652.415, 1549.294 1651.132, 1503.114 1604.484 C 1472.418 1573.478, 1464.370 1565.950, 1462 1566.029 C 1461.725 1566.038, 1460.090 1566.741, 1458.367 1567.591 M 1620 1604.872 C 1620 1613.328, 1617.403 1622.129, 1612.342 1630.829 C 1610.957 1633.209, 1610.065 1635.399, 1610.361 1635.694 C 1611.345 1636.679, 1615.904 1630.585, 1619.858 1623 C 1625.584 1612.012, 1626.506 1601.046, 1621.943 1598.196 C 1620.081 1597.033, 1620 1597.310, 1620 1604.872 M 1401.488 1625.026 C 1392.695 1633.841, 1383.813 1642.227, 1381.750 1643.662 C 1377.364 1646.715, 1377.007 1648, 1380.547 1648 C 1382.329 1648, 1383.604 1647.102, 1384.797 1645.006 C 1385.733 1643.360, 1387.175 1641.991, 1388 1641.964 C 1390.829 1641.873, 1395.843 1638.498, 1398.921 1634.612 C 1400.614 1632.474, 1402 1630.359, 1402 1629.912 C 1402 1629.224, 1410.970 1620.020, 1415.194 1616.373 C 1419.263 1612.859, 1420.826 1609, 1418.179 1609 C 1417.793 1609, 1410.282 1616.212, 1401.488 1625.026 M 1235 1621.448 C 1235 1626.744, 1239.542 1642.994, 1243.665 1652.447 C 1248.963 1664.595, 1265.890 1689, 1269.017 1689 C 1269.537 1689, 1270.242 1687.882, 1270.585 1686.516 C 1271.276 1683.766, 1268.208 1677.767, 1263.336 1672.340 C 1257.277 1665.590, 1256.375 1664.311, 1253.577 1658.500 C 1251.987 1655.200, 1248.732 1650.382, 1246.343 1647.793 C 1242.821 1643.975, 1241.997 1642.369, 1241.987 1639.293 C 1241.975 1635.894, 1237.056 1619.723, 1235.588 1618.254 C 1235.264 1617.931, 1235 1619.368, 1235 1621.448 M 1454.814 1658.932 C 1453.463 1659.995, 1451.800 1662.723, 1451.120 1664.994 C 1450.191 1668.096, 1448.737 1669.918, 1445.280 1672.312 C 1442.749 1674.065, 1439.513 1676.567, 1438.089 1677.871 C 1436.665 1679.176, 1434.462 1680.932, 1433.192 1681.774 C 1431.923 1682.616, 1430.035 1684.971, 1428.997 1687.006 C 1427.600 1689.745, 1425.835 1691.255, 1422.209 1692.815 C 1419.514 1693.974, 1416.710 1695.645, 1415.977 1696.527 C 1414.154 1698.724, 1410.430 1700.480, 1404.541 1701.921 C 1401.814 1702.588, 1397.768 1704.469, 1395.550 1706.100 C 1389.861 1710.283, 1377.450 1714.001, 1369.198 1713.994 C 1365.514 1713.991, 1357.974 1714.512, 1352.442 1715.152 C 1343.923 1716.137, 1340.594 1716.058, 1330.684 1714.632 C 1320.306 1713.140, 1314.556 1711.640, 1313 1710.020 C 1311.744 1708.713, 1301.987 1704.086, 1297.211 1702.533 C 1293.878 1701.449, 1291.155 1699.776, 1289.848 1698.008 C 1288.446 1696.113, 1285.945 1694.661, 1282.137 1693.534 C 1279.037 1692.616, 1275.429 1691.428, 1274.121 1690.895 C 1267.952 1688.380, 1271.340 1692.926, 1280.515 1699.473 C 1293.881 1709.011, 1309.608 1716.569, 1323.665 1720.211 C 1331.440 1722.225, 1334.899 1722.500, 1352.500 1722.500 C 1377.709 1722.500, 1382.128 1721.563, 1402.919 1711.814 C 1418.978 1704.284, 1426.075 1699.022, 1444.061 1681.309 C 1454.150 1671.374, 1461.391 1665, 1462.589 1665 C 1463.670 1665, 1465.605 1665.735, 1466.887 1666.634 C 1469.160 1668.225, 1469.201 1668.206, 1468.476 1665.884 C 1466.796 1660.496, 1466.002 1659.071, 1464.114 1658.061 C 1461.106 1656.451, 1457.543 1656.785, 1454.814 1658.932 M 1450.831 1723.023 C 1443.256 1724.301, 1435 1726.972, 1435 1728.145 C 1435 1728.807, 1435.882 1728.969, 1437.250 1728.559 C 1438.487 1728.188, 1443.016 1727.455, 1447.314 1726.929 C 1454.579 1726.041, 1462 1723.829, 1462 1722.551 C 1462 1721.819, 1456.618 1722.047, 1450.831 1723.023 M 1473 1724.882 C 1474.375 1726.006, 1476.742 1727.203, 1478.260 1727.544 C 1482.034 1728.391, 1486.515 1730.711, 1488.126 1732.652 C 1488.861 1733.538, 1492.396 1736.195, 1495.981 1738.557 C 1501.172 1741.977, 1503.101 1744, 1505.449 1748.489 C 1507.072 1751.590, 1510.305 1755.720, 1512.634 1757.666 C 1520.111 1763.915, 1520.823 1767.486, 1521.277 1801.015 C 1521.371 1808.011, 1519.968 1810.788, 1512.472 1818.430 C 1508.153 1822.835, 1505 1826.903, 1505 1828.071 C 1505 1829.330, 1503.783 1830.736, 1501.777 1831.797 C 1500.004 1832.733, 1496.966 1835.034, 1495.027 1836.910 C 1490.770 1841.026, 1486.093 1843.991, 1483.849 1843.996 C 1482.941 1843.998, 1479.791 1845.121, 1476.849 1846.490 C 1472.175 1848.666, 1470.111 1848.982, 1460.500 1848.990 C 1446.313 1849.002, 1435.087 1846.912, 1431.503 1843.590 C 1430.033 1842.228, 1426.956 1840.139, 1424.665 1838.947 C 1422.374 1837.756, 1420.275 1836.471, 1420 1836.092 C 1419.725 1835.714, 1418.093 1834.422, 1416.374 1833.222 C 1414.186 1831.695, 1412.912 1829.709, 1412.131 1826.606 C 1411.517 1824.168, 1409.549 1820.221, 1407.757 1817.836 C 1400.283 1807.887, 1399.111 1805.389, 1398.089 1797.239 C 1397.542 1792.877, 1397.300 1786.820, 1397.552 1783.780 C 1397.878 1779.835, 1397.612 1777.923, 1396.623 1777.102 C 1395.476 1776.150, 1395.117 1777.088, 1394.531 1782.560 C 1392.862 1798.137, 1397.237 1813.315, 1407.716 1828.310 C 1413.343 1836.360, 1417.859 1840.706, 1426 1845.904 C 1437.051 1852.960, 1444.061 1855.042, 1459.011 1855.710 C 1474.424 1856.398, 1479.522 1855.407, 1492 1849.300 C 1499.719 1845.523, 1502.953 1843.190, 1509.250 1836.858 C 1513.895 1832.187, 1517 1828.237, 1517 1827.001 C 1517 1825.866, 1517.696 1824.670, 1518.546 1824.344 C 1520.211 1823.705, 1525 1815.003, 1525 1812.617 C 1525 1811.819, 1525.425 1811.017, 1525.944 1810.833 C 1528.551 1809.912, 1529.848 1787.090, 1527.981 1775 C 1526.214 1763.560, 1515.372 1745.723, 1505.113 1737.378 C 1497.505 1731.190, 1482.613 1724.029, 1476 1723.380 L 1470.500 1722.840 1473 1724.882 M 1407.138 1750.866 C 1404.089 1755.394, 1402.088 1759.333, 1402.498 1759.997 C 1403.473 1761.574, 1408.451 1756.765, 1410.121 1752.633 C 1410.817 1750.910, 1411.786 1749.226, 1412.273 1748.891 C 1412.761 1748.557, 1413.012 1747.072, 1412.830 1745.593 C 1412.531 1743.159, 1411.989 1743.661, 1407.138 1750.866" stroke="none" fill="#ff6961" fill-rule="evenodd"/><path d="M 1494.504 1300.737 C 1493.407 1301.014, 1491.074 1302.762, 1489.321 1304.621 C 1487.569 1306.479, 1485.279 1308, 1484.233 1308 C 1483.042 1308, 1444.018 1346.423, 1379.732 1410.894 C 1294.687 1496.183, 1277.226 1514.149, 1277.684 1515.901 C 1279.063 1521.173, 1273.274 1527.561, 1267.841 1526.763 C 1265.339 1526.396, 1264.354 1527.006, 1261.139 1530.916 C 1255.620 1537.629, 1253 1541.614, 1253 1543.297 C 1253 1544.116, 1252.381 1545.024, 1251.624 1545.314 C 1250.755 1545.648, 1250.427 1546.783, 1250.735 1548.392 C 1251.118 1550.395, 1250.684 1551.187, 1248.712 1552.085 C 1245.543 1553.529, 1240.993 1563.857, 1240.997 1569.597 C 1240.999 1572.226, 1240.302 1574.499, 1239.051 1575.941 C 1235.997 1579.463, 1234.660 1588.155, 1235.400 1599.674 C 1235.765 1605.363, 1235.660 1610.092, 1235.161 1610.401 C 1234.296 1610.935, 1234.588 1614.941, 1235.715 1618 C 1240.272 1630.366, 1241.976 1636.150, 1241.987 1639.293 C 1241.997 1642.369, 1242.821 1643.975, 1246.343 1647.793 C 1248.732 1650.382, 1251.987 1655.200, 1253.577 1658.500 C 1256.375 1664.311, 1257.277 1665.590, 1263.336 1672.340 C 1264.896 1674.078, 1267.336 1677.471, 1268.757 1679.879 C 1270.982 1683.650, 1271.188 1684.664, 1270.236 1687.185 C 1269.404 1689.390, 1269.424 1690.194, 1270.316 1690.439 C 1270.967 1690.618, 1273.412 1691.267, 1275.750 1691.882 C 1286.075 1694.598, 1287.922 1695.403, 1289.869 1698.036 C 1291.154 1699.774, 1293.901 1701.457, 1297.211 1702.533 C 1301.987 1704.086, 1311.744 1708.713, 1313 1710.020 C 1314.556 1711.640, 1320.306 1713.140, 1330.684 1714.632 C 1340.594 1716.058, 1343.923 1716.137, 1352.442 1715.152 C 1357.974 1714.512, 1365.514 1713.991, 1369.198 1713.994 C 1377.450 1714.001, 1389.861 1710.283, 1395.550 1706.100 C 1397.768 1704.469, 1401.814 1702.588, 1404.541 1701.921 C 1410.430 1700.480, 1414.154 1698.724, 1415.977 1696.527 C 1416.710 1695.645, 1419.514 1693.974, 1422.209 1692.815 C 1425.835 1691.255, 1427.600 1689.745, 1428.997 1687.006 C 1430.035 1684.971, 1431.923 1682.616, 1433.192 1681.774 C 1434.462 1680.932, 1436.665 1679.176, 1438.089 1677.871 C 1439.513 1676.567, 1442.749 1674.065, 1445.280 1672.312 C 1448.737 1669.918, 1450.191 1668.096, 1451.120 1664.994 C 1453.206 1658.031, 1459.607 1654.935, 1464.636 1658.457 C 1465.780 1659.259, 1467.286 1661.950, 1467.983 1664.438 C 1469.266 1669.022, 1470.489 1670.566, 1474.357 1672.486 C 1475.535 1673.071, 1476.636 1674.495, 1476.803 1675.651 C 1477.132 1677.929, 1482 1683.103, 1482 1681.174 C 1482 1679.164, 1487.367 1679.885, 1491.054 1682.390 C 1492.988 1683.705, 1495.825 1686.743, 1497.357 1689.140 C 1500.343 1693.813, 1511.212 1701.543, 1519.097 1704.602 C 1521.519 1705.542, 1524.240 1706.943, 1525.145 1707.716 C 1526.740 1709.077, 1540.894 1713.093, 1551.882 1715.301 C 1560.991 1717.131, 1591.212 1714.737, 1603.199 1711.236 C 1608.533 1709.678, 1613.708 1707.713, 1614.699 1706.871 C 1615.689 1706.028, 1618.630 1704.553, 1621.234 1703.593 C 1628.403 1700.949, 1641.561 1690.756, 1643.616 1686.255 C 1645.663 1681.773, 1650.534 1677.157, 1654 1676.416 C 1658.288 1675.498, 1659.410 1674.508, 1662.500 1668.919 C 1664.150 1665.933, 1666.963 1661.513, 1668.750 1659.095 C 1670.537 1656.678, 1672.004 1654.205, 1672.010 1653.600 C 1672.015 1652.995, 1673.198 1650.025, 1674.639 1647 C 1677.358 1641.291, 1677.927 1639.196, 1680.614 1625 C 1683.052 1612.123, 1681.936 1591.995, 1677.981 1577.500 C 1676.330 1571.450, 1674.492 1564.025, 1673.897 1561 C 1673.302 1557.975, 1672.465 1555.050, 1672.038 1554.500 C 1671.610 1553.950, 1670.718 1551.814, 1670.054 1549.753 C 1669.390 1547.692, 1667.307 1544.163, 1665.426 1541.911 C 1663.544 1539.659, 1661.284 1536.596, 1660.403 1535.105 C 1659.522 1533.614, 1656.602 1531.158, 1653.913 1529.646 C 1647.994 1526.319, 1644.594 1522.069, 1642.389 1515.240 C 1640.939 1510.751, 1640.224 1509.907, 1636.669 1508.484 C 1634.434 1507.590, 1630.298 1504.528, 1627.476 1501.679 C 1624.654 1498.831, 1620.925 1495.231, 1619.188 1493.679 C 1617.450 1492.127, 1615.235 1489.496, 1614.265 1487.830 C 1613.213 1486.025, 1610.227 1483.650, 1606.871 1481.948 C 1600.725 1478.831, 1595.330 1472.902, 1594.398 1468.238 C 1593.977 1466.135, 1592.496 1464.448, 1589.295 1462.425 C 1586.814 1460.857, 1583.243 1457.692, 1581.359 1455.393 C 1579.474 1453.093, 1576.427 1450.180, 1574.587 1448.919 C 1572.747 1447.658, 1570.175 1444.901, 1568.871 1442.791 C 1567.367 1440.357, 1563.673 1437.156, 1558.762 1434.031 C 1552.021 1429.740, 1550.684 1428.387, 1548.388 1423.539 C 1546.761 1420.102, 1544.174 1416.739, 1541.626 1414.750 C 1539.357 1412.979, 1536.832 1410.887, 1536.016 1410.102 C 1535.200 1409.317, 1532.112 1407.567, 1529.155 1406.213 L 1523.777 1403.751 1510.889 1416.611 C 1503.800 1423.684, 1498 1430.288, 1498 1431.287 C 1498 1432.389, 1496.723 1433.637, 1494.750 1434.464 C 1489.760 1436.554, 1487.056 1439.965, 1487.713 1443.338 C 1488.279 1446.240, 1499.324 1457.703, 1505.043 1461.324 C 1506.654 1462.344, 1508.923 1464.870, 1510.085 1466.937 C 1511.319 1469.133, 1514.146 1471.833, 1516.887 1473.434 C 1519.684 1475.067, 1522.369 1477.652, 1523.538 1479.837 C 1524.908 1482.395, 1527.050 1484.254, 1530.641 1486 C 1533.468 1487.375, 1536.567 1489.168, 1537.527 1489.985 C 1540.052 1492.134, 1543.997 1498.664, 1544.018 1500.730 C 1544.028 1501.739, 1546.174 1503.898, 1549.005 1505.749 C 1551.738 1507.536, 1555.120 1510.814, 1556.521 1513.033 C 1557.922 1515.253, 1561.431 1518.580, 1564.319 1520.428 C 1567.294 1522.330, 1570.400 1525.328, 1571.486 1527.343 C 1572.652 1529.509, 1575.203 1531.881, 1578.006 1533.407 C 1580.539 1534.786, 1583.307 1536.720, 1584.157 1537.707 C 1585.833 1539.651, 1589.478 1546.416, 1590.391 1549.276 C 1590.702 1550.253, 1592.924 1551.896, 1595.327 1552.926 C 1600.104 1554.974, 1602.307 1557.328, 1606.043 1564.382 C 1607.394 1566.933, 1609.216 1569.249, 1610.092 1569.527 C 1610.967 1569.806, 1612.739 1571.157, 1614.028 1572.530 C 1615.907 1574.530, 1616.412 1576.265, 1616.571 1581.263 C 1616.833 1589.520, 1618.779 1595.681, 1621.901 1598.136 C 1624.229 1599.968, 1624.434 1600.748, 1624.334 1607.372 C 1624.240 1613.542, 1623.702 1615.643, 1620.677 1621.649 C 1616.761 1629.424, 1612.522 1635, 1610.526 1635 C 1608.798 1635, 1605.503 1640.060, 1605.840 1642.196 C 1606.265 1644.890, 1602.402 1647.922, 1597.764 1648.536 C 1591.132 1649.413, 1586 1651.192, 1586 1652.615 C 1586 1653.327, 1584.537 1654.135, 1582.750 1654.411 C 1580.963 1654.687, 1577.925 1655.182, 1576 1655.512 C 1574.075 1655.841, 1569.231 1656.360, 1565.235 1656.665 C 1558.837 1657.154, 1557.346 1656.918, 1552.735 1654.684 C 1549.856 1653.289, 1545.025 1651.053, 1542 1649.716 C 1536.173 1647.139, 1523.204 1635.259, 1520.798 1630.293 C 1519.964 1628.573, 1518.287 1627.303, 1516.109 1626.743 C 1513.746 1626.134, 1510.412 1623.402, 1505.109 1617.728 C 1494.666 1606.554, 1490.135 1601.995, 1485.805 1598.306 C 1483.773 1596.574, 1480.434 1592.760, 1478.387 1589.829 C 1473.544 1582.898, 1465.260 1574.246, 1461.642 1572.342 C 1456.741 1569.762, 1454.489 1571.168, 1452.371 1578.130 C 1450.864 1583.086, 1449.740 1584.839, 1446.589 1587.149 C 1444.437 1588.726, 1440.837 1590.540, 1438.589 1591.181 C 1433.612 1592.598, 1430.947 1594.699, 1431.686 1596.624 C 1432.316 1598.266, 1428.467 1602, 1426.145 1602 C 1423.954 1602, 1418.052 1607.972, 1418.665 1609.569 C 1419.206 1610.980, 1416.087 1617, 1414.815 1617 C 1413.797 1617, 1402 1628.886, 1402 1629.912 C 1402 1630.359, 1400.614 1632.474, 1398.921 1634.612 C 1395.761 1638.602, 1390.800 1641.884, 1387.817 1641.958 C 1386.892 1641.981, 1385.841 1642.926, 1385.482 1644.057 C 1384.762 1646.326, 1380.462 1648.391, 1378.237 1647.537 C 1377.457 1647.238, 1375.552 1647.895, 1374.005 1648.997 C 1372.457 1650.098, 1370.431 1651, 1369.502 1651 C 1368.573 1651, 1367.578 1651.897, 1367.292 1652.992 C 1366.464 1656.159, 1360.038 1657.391, 1350.621 1656.189 C 1346.265 1655.633, 1342.133 1655.396, 1341.439 1655.662 C 1340.745 1655.928, 1338.308 1654.909, 1336.023 1653.397 C 1333.543 1651.755, 1329.692 1650.352, 1326.466 1649.914 C 1319.860 1649.018, 1315.381 1645.993, 1313.427 1641.108 C 1312.568 1638.963, 1309.888 1635.787, 1307.012 1633.510 C 1300.305 1628.197, 1298.420 1623.432, 1297.025 1608.273 C 1295.715 1594.032, 1296.299 1590.828, 1301.541 1583.500 C 1303.508 1580.750, 1305.922 1576.700, 1306.905 1574.500 C 1308.802 1570.252, 1312.683 1565.785, 1317.329 1562.500 C 1318.885 1561.400, 1321.012 1558.850, 1322.056 1556.834 C 1323.100 1554.818, 1325.427 1552.141, 1327.227 1550.884 C 1329.027 1549.628, 1330.907 1547.903, 1331.405 1547.050 C 1331.903 1546.198, 1333.936 1543.925, 1335.923 1542 C 1337.909 1540.075, 1340.853 1536.766, 1342.465 1534.646 C 1344.077 1532.527, 1347.418 1529.827, 1349.889 1528.646 C 1353.324 1527.006, 1355.153 1525.178, 1357.655 1520.889 C 1359.454 1517.803, 1362.146 1514.479, 1363.637 1513.502 C 1365.128 1512.525, 1368.489 1509.650, 1371.105 1507.113 C 1373.721 1504.576, 1376.347 1502.050, 1376.941 1501.500 C 1379.448 1499.177, 1385.733 1492.175, 1388.740 1488.354 C 1390.522 1486.090, 1393.672 1483.452, 1395.740 1482.491 C 1400.913 1480.088, 1402.971 1478.107, 1404.652 1473.908 C 1405.553 1471.659, 1409.155 1467.652, 1414.295 1463.183 C 1418.808 1459.260, 1423.037 1455.476, 1423.693 1454.775 C 1424.350 1454.074, 1428.325 1449.829, 1432.527 1445.342 C 1436.730 1440.855, 1442.105 1435.960, 1444.472 1434.463 C 1446.840 1432.967, 1449.693 1430.113, 1450.814 1428.121 C 1453.039 1424.169, 1467.114 1410, 1468.816 1410 C 1469.396 1410, 1471.137 1408.233, 1472.685 1406.073 C 1474.233 1403.913, 1476.731 1401.417, 1478.235 1400.526 C 1479.739 1399.634, 1482.287 1396.990, 1483.898 1394.649 C 1485.508 1392.308, 1488.704 1389.091, 1491 1387.500 C 1493.296 1385.909, 1496.507 1382.671, 1498.135 1380.304 C 1499.764 1377.937, 1501.494 1376, 1501.980 1376 C 1503.301 1376, 1518.126 1361.002, 1520.989 1356.769 C 1522.358 1354.744, 1525.106 1352.354, 1527.095 1351.457 C 1532.693 1348.933, 1535.817 1340.264, 1533.016 1335.031 C 1532.475 1334.020, 1529.361 1330.413, 1526.096 1327.016 C 1522.831 1323.619, 1519.787 1320.416, 1519.330 1319.897 C 1518.873 1319.378, 1516.925 1317.951, 1515 1316.727 C 1512.768 1315.307, 1510.534 1312.507, 1508.834 1309 C 1505.180 1301.462, 1501.051 1299.081, 1494.504 1300.737 M 1460.753 1723.390 C 1459.792 1724.119, 1455.517 1725.254, 1451.253 1725.912 C 1446.989 1726.570, 1441.860 1727.538, 1439.855 1728.063 C 1437.850 1728.588, 1435.586 1728.778, 1434.824 1728.486 C 1433.119 1727.832, 1422.544 1734.194, 1417.052 1739.177 C 1413.993 1741.953, 1413 1743.606, 1413 1745.927 C 1413 1747.617, 1412.599 1749, 1412.108 1749 C 1411.618 1749, 1410.943 1750.090, 1410.609 1751.423 C 1409.749 1754.847, 1405.168 1760, 1402.983 1760 C 1400.017 1760, 1394.692 1776.074, 1397.154 1777.595 C 1397.582 1777.860, 1397.654 1781.675, 1397.315 1786.074 C 1396.319 1798.984, 1398.439 1805.432, 1407.757 1817.836 C 1409.549 1820.221, 1411.517 1824.168, 1412.131 1826.606 C 1412.912 1829.709, 1414.186 1831.695, 1416.374 1833.222 C 1418.093 1834.422, 1419.725 1835.714, 1420 1836.092 C 1420.275 1836.471, 1422.374 1837.756, 1424.665 1838.947 C 1426.956 1840.139, 1429.955 1842.155, 1431.329 1843.429 C 1435.405 1847.207, 1439.693 1848.142, 1455.607 1848.725 C 1470.379 1849.265, 1470.842 1849.219, 1476.478 1846.639 C 1479.648 1845.187, 1482.975 1843.998, 1483.871 1843.996 C 1486.156 1843.991, 1491.995 1840.276, 1494.276 1837.377 C 1495.328 1836.039, 1497.949 1834.046, 1500.100 1832.949 C 1502.886 1831.528, 1504.626 1829.646, 1506.147 1826.411 C 1507.322 1823.912, 1510.470 1819.985, 1513.144 1817.684 C 1520.288 1811.536, 1521.396 1808.531, 1520.956 1796.509 C 1520.755 1791.004, 1520.692 1783.350, 1520.816 1779.500 C 1521.158 1768.904, 1519.596 1764.616, 1513.016 1758.088 C 1509.917 1755.015, 1506.307 1750.345, 1504.994 1747.711 C 1503.172 1744.056, 1501.050 1741.896, 1496.034 1738.592 C 1492.420 1736.210, 1488.861 1733.538, 1488.126 1732.652 C 1486.482 1730.671, 1481.999 1728.378, 1478.089 1727.520 C 1476.477 1727.165, 1473.974 1725.779, 1472.527 1724.438 C 1469.561 1721.689, 1463.683 1721.166, 1460.753 1723.390" stroke="none" fill="#ff8c00" fill-rule="evenodd"/></svg>